# xmcd
#
# Track frame offsets: 
#        150
#        21570
#        38790
#        53310
#        69024
#        83712
#        98048
#        119073
#        134569
#        148816
#        168606
#        184107
#        198365
#        213447
#        225974
#        242859
#        256242
#        272419
#        291447
#        301593
#
# Disc length: 4171 seconds
#
# Revision: 0
# Processed by: cddbd v1.5.2PL0 Copyright (c) Steve Scherf et al.
# Submitted via: ExactAudioCopyFreeDBPlugin 1.0
#
DISCID=1b104914
DTITLE=Various Artist - Country Hvězdy
DYEAR=1900
DGENRE=Country
TTITLE0=Bobr - Všichni jsou už v Mexiku
TTITLE1=M.Smolka - Pověste ho vejš
TTITLE2=H.Lounová - Červená řeka
TTITLE3=J.E.Matuška - Sbohem lásko
TTITLE4=T.Linka - Blízko Little Big Hornu
TTITLE5=J.E.Matuška - Tisíc mil
TTITLE6=M.Pressar - Oranžový expres
TTITLE7=J.E.Matuška - Sedm dostavníků
TTITLE8=L.Jindra - Frankie dlouhán
TTITLE9=STS - Jižní eskadrona
TTITLE10=M.Janota - Pane můj
TTITLE11=J.E.Matuška - Růže z Texasu
TTITLE12=L.Herman - Poutník s kytarou
TTITLE13=M.Kohout - Zelené pláně
TTITLE14=J.E.Matuška - Jó, třešně zrály
TTITLE15=M.Janota - Slámu v botách nosím
TTITLE16=Bobr - El paso
TTITLE17=J.E.Matuška - Eldorádo
TTITLE18=M.Matoušek - Jižní kříž
TTITLE19=STS - Zrádný banjo
EXTD=
EXTT0=
EXTT1=
EXTT2=
EXTT3=
EXTT4=
EXTT5=
EXTT6=
EXTT7=
EXTT8=
EXTT9=
EXTT10=
EXTT11=
EXTT12=
EXTT13=
EXTT14=
EXTT15=
EXTT16=
EXTT17=
EXTT18=
EXTT19=
PLAYORDER=
